<svg width="156" height="71" viewBox="0 0 156 71" fill="none" xmlns="http://www.w3.org/2000/svg">
<path fill-rule="evenodd" clip-rule="evenodd" d="M42 66C58.5685 66 72 52.5685 72 36C72 19.4315 58.5685 6 42 6C25.4315 6 12 19.4315 12 36C12 52.5685 25.4315 66 42 66ZM42.0005 62.0014C56.3599 62.0014 68.0005 50.3608 68.0005 36.0014C68.0005 21.642 56.3599 10.0014 42.0005 10.0014C27.6411 10.0014 16.0005 21.642 16.0005 36.0014C16.0005 50.3608 27.6411 62.0014 42.0005 62.0014Z" fill="white"/>
<g filter="url(#filter0_d)">
<path fill-rule="evenodd" clip-rule="evenodd" d="M33.5995 25.9987C33.5995 25.9984 33.5993 25.998 33.5989 25.998H29.6003C29.5999 25.998 29.5995 25.9983 29.5995 25.9987V25.9987C29.5994 25.9992 29.599 25.9994 29.5986 25.9994H27.5996C26.495 25.9994 25.5996 26.8949 25.5996 27.9994V28.558C25.5996 29.3541 26.245 29.9994 27.0411 29.9994V29.9994C27.9507 29.9994 28.6329 30.8316 28.4545 31.7236L26.0688 43.6523C25.8261 44.8658 26.7543 45.9981 27.9918 45.9981V45.9981C28.9267 45.9981 29.7316 45.3382 29.9149 44.4215L32.1632 33.1801C32.5331 31.3307 34.1569 29.9994 36.043 29.9994V29.9994C38.2282 29.9994 39.9997 31.7709 39.9997 33.9561V43.9981C39.9997 45.1026 40.8951 45.9981 41.9997 45.9981V45.9981C43.1042 45.9981 43.9997 45.1026 43.9997 43.9981V27.998C43.9997 26.8935 43.1042 25.998 41.9997 25.998H40.0004C40 25.998 39.9997 25.9984 39.9997 25.9987V25.9987C39.9997 25.9991 39.9994 25.9994 39.999 25.9994H33.6C33.5997 25.9994 33.5994 25.9991 33.5995 25.9987V25.9987ZM54.3998 27.9981C54.3998 26.8935 55.2953 25.998 56.3999 25.998V25.998C57.5044 25.998 58.3999 26.8935 58.3999 27.9981V43.998C58.3999 45.1026 57.5044 45.9981 56.3999 45.9981V45.9981C55.2953 45.9981 54.3998 45.1026 54.3998 43.998V27.9981ZM37.6 36.0367C37.6 34.9322 36.7046 34.0367 35.6 34.0367V34.0367C34.4955 34.0367 33.6 34.9322 33.6 36.0367V36.0367C33.6 37.1413 34.4955 38.0368 35.6 38.0368V38.0368C36.7046 38.0368 37.6 37.1413 37.6 36.0367V36.0367ZM47.2 27.9981C47.2 26.8935 48.0954 25.998 49.2 25.998V25.998C50.3045 25.998 51.2 26.8935 51.2 27.998V35.998C51.2 37.1026 50.3045 37.998 49.2 37.998V37.998C48.0954 37.998 47.2 37.1026 47.2 35.998V27.9981Z" fill="white"/>
</g>
<path d="M95.799 28.0299C95.5623 27.479 95.0204 27.122 94.4208 27.122H87.9161C87.3136 27.122 86.7697 27.4823 86.5348 28.0371L85.6298 30.1743C85.3991 30.7192 84.8648 31.0732 84.2731 31.0732V31.0732C83.2054 31.0732 82.4922 29.9729 82.9283 28.9982L89.241 14.8874C89.4825 14.3476 90.0188 14 90.6102 14H91.7708C92.3616 14 92.8974 14.3468 93.1393 14.8858L99.4574 28.964C99.9018 29.9541 99.1774 31.0732 98.0922 31.0732V31.0732C97.494 31.0732 96.9533 30.717 96.7172 30.1674L95.799 28.0299ZM92.0909 24.6341C93.1679 24.6341 93.894 23.5328 93.4695 22.5429L92.5494 20.3975C92.029 19.184 90.3078 19.1864 89.7907 20.4013L88.8776 22.5467C88.4565 23.5361 89.1825 24.6341 90.2578 24.6341H92.0909Z" fill="white"/>
<path d="M118.615 17.9024C120.247 17.9024 121.54 18.3821 122.494 19.3415C123.448 20.2846 123.925 21.7073 123.925 23.6098V29.5732C123.925 30.4016 123.253 31.0732 122.425 31.0732H122.394C121.565 31.0732 120.894 30.4016 120.894 29.5732V24C120.894 22.8618 120.643 22.0081 120.142 21.439C119.641 20.8537 118.922 20.561 117.984 20.561C116.966 20.561 116.149 20.9024 115.535 21.5854C114.921 22.252 114.614 23.2114 114.614 24.4634V29.5732C114.614 30.4016 113.942 31.0732 113.114 31.0732H113.083C112.254 31.0732 111.583 30.4016 111.583 29.5732V24C111.583 22.8618 111.332 22.0081 110.831 21.439C110.33 20.8537 109.611 20.561 108.673 20.561C107.638 20.561 106.814 20.8943 106.2 21.561C105.602 22.2276 105.303 23.1951 105.303 24.4634V29.5732C105.303 30.4016 104.631 31.0732 103.803 31.0732H103.772C102.943 31.0732 102.272 30.4016 102.272 29.5732V19.4915C102.272 18.6947 102.918 18.0488 103.714 18.0488H104.718C104.96 18.0488 105.157 18.2455 105.157 18.4882V18.4882C105.157 18.8998 105.712 19.1183 106.048 18.8804C106.332 18.6796 106.641 18.5081 106.976 18.3659C107.703 18.0569 108.511 17.9024 109.4 17.9024C110.37 17.9024 111.227 18.0894 111.971 18.4634C112.056 18.5034 112.139 18.5456 112.219 18.5901C113.138 19.0949 114.491 19.1887 115.413 18.6905C115.547 18.6185 115.684 18.551 115.826 18.4878C116.667 18.0976 117.596 17.9024 118.615 17.9024Z" fill="white"/>
<path d="M132.745 17.9024C134.652 17.9024 136.107 18.3659 137.109 19.2927C138.128 20.2033 138.637 21.5854 138.637 23.439V29.6426C138.637 30.4327 137.996 31.0732 137.206 31.0732H136.139C135.938 31.0732 135.775 30.9103 135.775 30.7095V30.7095C135.775 30.3479 135.229 30.1538 134.937 30.3675C134.71 30.5345 134.456 30.6803 134.175 30.8049C133.496 31.0976 132.672 31.2439 131.702 31.2439C130.732 31.2439 129.883 31.0813 129.156 30.7561C128.428 30.4146 127.863 29.9512 127.459 29.3659C127.071 28.7642 126.877 28.0894 126.877 27.3415C126.877 26.1707 127.305 25.2358 128.162 24.5366C129.035 23.8211 130.401 23.4634 132.26 23.4634H135.411C135.518 23.4634 135.606 23.3761 135.606 23.2683V23.2683C135.606 22.3577 135.331 21.6585 134.781 21.1707C134.248 20.6829 133.448 20.439 132.381 20.439C131.653 20.439 130.934 20.5528 130.223 20.7805C130.05 20.837 129.884 20.8991 129.724 20.9667C129.017 21.266 128.112 21.0957 127.75 20.4186V20.4186C127.47 19.8959 127.606 19.2373 128.128 18.9558C128.606 18.6979 129.134 18.485 129.714 18.3171C130.667 18.0407 131.678 17.9024 132.745 17.9024ZM132.332 29.0244C133.092 29.0244 133.763 28.8537 134.345 28.5122C134.876 28.1946 135.267 27.7617 135.517 27.2135C135.581 27.0745 135.606 26.9218 135.606 26.769V26.769C135.606 26.0614 135.032 25.4878 134.325 25.4878H132.478C130.732 25.4878 129.859 26.065 129.859 27.2195C129.859 27.7724 130.077 28.2114 130.514 28.5366C130.95 28.8618 131.556 29.0244 132.332 29.0244Z" fill="white"/>
<path d="M149.874 17.9024C151.506 17.9024 152.816 18.3821 153.802 19.3415C154.788 20.3008 155.281 21.7236 155.281 23.6098V29.5732C155.281 30.4016 154.609 31.0732 153.781 31.0732H153.75C152.921 31.0732 152.25 30.4016 152.25 29.5732V24C152.25 22.8618 151.983 22.0081 151.45 21.439C150.916 20.8537 150.157 20.561 149.17 20.561C148.055 20.561 147.174 20.9024 146.527 21.5854C145.881 22.252 145.558 23.2195 145.558 24.4878V29.5732C145.558 30.4016 144.886 31.0732 144.058 31.0732H144.027C143.198 31.0732 142.527 30.4016 142.527 29.5732V19.4915C142.527 18.6947 143.173 18.0488 143.969 18.0488H144.965C145.212 18.0488 145.412 18.249 145.412 18.496V18.496C145.412 18.9143 145.976 19.1374 146.319 18.8977C146.619 18.6882 146.947 18.5109 147.303 18.3659C148.063 18.0569 148.92 17.9024 149.874 17.9024Z" fill="white"/>
<path d="M100.263 56.8203C99.4364 56.8203 98.7653 56.1507 98.7635 55.3236L98.7524 50.237C98.7491 48.7222 96.7581 48.1666 95.9709 49.4607L93.1379 54.1177C92.8928 54.5205 92.4555 54.7664 91.9839 54.7664V54.7664C91.5158 54.7664 91.0811 54.524 90.835 54.1257L88.0094 49.5536C87.2151 48.2682 85.2334 48.8311 85.2334 50.3421V55.3203C85.2334 56.1487 84.5618 56.8203 83.7334 56.8203H83.5C82.6716 56.8203 82 56.1487 82 55.3203V40.3485C82 39.5201 82.6716 38.8485 83.5 38.8485H83.947C84.4706 38.8485 84.9562 39.1215 85.2284 39.5688L90.7462 48.6363C91.3333 49.6012 92.7358 49.5955 93.3152 48.626L98.7214 39.5791C98.9921 39.126 99.4811 38.8485 100.009 38.8485H100.45C101.278 38.8485 101.949 39.5188 101.95 40.3463L101.972 55.3181C101.973 56.1474 101.301 56.8203 100.472 56.8203H100.263Z" fill="white"/>
<path d="M106.592 44.6104C106.592 43.782 107.263 43.1104 108.092 43.1104H108.351C109.179 43.1104 109.851 43.782 109.851 44.6104V55.3203C109.851 56.1487 109.179 56.8203 108.351 56.8203H108.092C107.263 56.8203 106.592 56.1487 106.592 55.3203V44.6104ZM108.234 40.8511C107.643 40.8511 107.148 40.6714 106.748 40.3119C106.348 39.9354 106.148 39.4733 106.148 38.9255C106.148 38.3778 106.348 37.9243 106.748 37.5648C107.148 37.1883 107.643 37 108.234 37C108.825 37 109.321 37.1797 109.721 37.5392C110.121 37.8815 110.32 38.3179 110.32 38.8485C110.32 39.4133 110.121 39.8926 109.721 40.2863C109.338 40.6628 108.843 40.8511 108.234 40.8511Z" fill="white"/>
<path d="M122.173 55.2581C122.367 55.7441 122.226 56.3164 121.75 56.5326C121.546 56.6251 121.326 56.7039 121.091 56.7689C120.552 56.923 119.979 57 119.37 57C117.841 57 116.659 56.6063 115.824 55.819C114.99 55.0317 114.572 53.8849 114.572 52.3787V46.9278C114.572 46.2942 114.059 45.7805 113.425 45.7805V45.7805C112.791 45.7805 112.278 45.2668 112.278 44.6332V44.3604C112.278 43.7268 112.791 43.2131 113.425 43.2131V43.2131C114.059 43.2131 114.572 42.6994 114.572 42.0658V41.5809C114.572 40.7524 115.244 40.0809 116.072 40.0809H116.332C117.16 40.0809 117.832 40.7524 117.832 41.5809V41.7131C117.832 42.5415 118.503 43.2131 119.332 43.2131H120.277C120.986 43.2131 121.561 43.7878 121.561 44.4968V44.4968C121.561 45.2058 120.986 45.7805 120.277 45.7805H119.332C118.503 45.7805 117.832 46.4521 117.832 47.2805V52.3017C117.832 52.9692 117.997 53.4827 118.327 53.8421C118.658 54.1844 119.136 54.3556 119.762 54.3556C119.887 54.3556 120.009 54.35 120.128 54.3388C120.916 54.2646 121.879 54.5228 122.173 55.2581V55.2581Z" fill="white"/>
<path d="M132.894 55.2581C133.088 55.7441 132.947 56.3164 132.47 56.5326C132.266 56.6251 132.047 56.7039 131.812 56.7689C131.273 56.923 130.699 57 130.091 57C128.561 57 127.379 56.6063 126.545 55.819C125.71 55.0317 125.293 53.8849 125.293 52.3787V46.9278C125.293 46.2942 124.779 45.7805 124.146 45.7805V45.7805C123.512 45.7805 122.998 45.2668 122.998 44.6332V44.3604C122.998 43.7268 123.512 43.2131 124.146 43.2131V43.2131C124.779 43.2131 125.293 42.6994 125.293 42.0658V41.5809C125.293 40.7524 125.965 40.0809 126.793 40.0809H127.053C127.881 40.0809 128.553 40.7524 128.553 41.5809V41.7131C128.553 42.5415 129.224 43.2131 130.053 43.2131H130.998C131.707 43.2131 132.281 43.7878 132.281 44.4968V44.4968C132.281 45.2058 131.707 45.7805 130.998 45.7805H130.053C129.224 45.7805 128.553 46.4521 128.553 47.2805V52.3017C128.553 52.9692 128.718 53.4827 129.048 53.8421C129.378 54.1844 129.856 54.3556 130.482 54.3556C130.608 54.3556 130.73 54.35 130.849 54.3388C131.637 54.2646 132.6 54.5228 132.894 55.2581V55.2581Z" fill="white"/>
<path d="M141.221 42.9564C143.272 42.9564 144.837 43.4442 145.915 44.4198C147.01 45.3783 147.557 46.8331 147.557 48.7843V55.3203C147.557 56.1487 146.886 56.8203 146.057 56.8203H144.869C144.654 56.8203 144.48 56.6465 144.48 56.4322V56.4322C144.48 56.0482 143.905 55.8413 143.594 56.0666C143.345 56.2469 143.067 56.404 142.759 56.5379C142.029 56.846 141.143 57 140.1 57C139.057 57 138.144 56.8288 137.362 56.4865C136.579 56.1271 135.971 55.6393 135.536 55.0231C135.119 54.3898 134.911 53.6795 134.911 52.8922C134.911 51.6598 135.371 50.6757 136.293 49.9397C137.231 49.1866 138.7 48.81 140.699 48.81H144.093C144.206 48.81 144.298 48.7181 144.298 48.6046V48.6046C144.298 47.6461 144.002 46.9101 143.411 46.3967C142.838 45.8832 141.977 45.6264 140.83 45.6264C140.048 45.6264 139.274 45.7463 138.509 45.9859C138.309 46.05 138.117 46.1208 137.934 46.1983C137.192 46.5114 136.248 46.3336 135.862 45.6272V45.6272C135.555 45.0668 135.703 44.3558 136.268 44.0586C136.779 43.79 137.343 43.5681 137.961 43.3928C138.987 43.1018 140.074 42.9564 141.221 42.9564ZM140.778 54.6637C141.595 54.6637 142.316 54.484 142.942 54.1245C143.512 53.7908 143.932 53.3361 144.201 52.7605C144.271 52.6124 144.298 52.4489 144.298 52.2854V52.2854C144.298 51.5429 143.696 50.941 142.953 50.941H140.934C139.057 50.941 138.118 51.5486 138.118 52.7638C138.118 53.3457 138.353 53.8079 138.822 54.1502C139.291 54.4925 139.943 54.6637 140.778 54.6637Z" fill="white"/>
<path d="M151.741 39.2702C151.741 38.4418 152.412 37.7702 153.241 37.7702H153.5C154.328 37.7702 155 38.4418 155 39.2702V55.3203C155 56.1487 154.328 56.8203 153.5 56.8203H153.241C152.412 56.8203 151.741 56.1487 151.741 55.3203V39.2702Z" fill="white"/>
<defs>
<filter id="filter0_d" x="0.599609" y="0.998047" width="82.8003" height="70" filterUnits="userSpaceOnUse" color-interpolation-filters="sRGB">
<feFlood flood-opacity="0" result="BackgroundImageFix"/>
<feColorMatrix in="SourceAlpha" type="matrix" values="0 0 0 0 0 0 0 0 0 0 0 0 0 0 0 0 0 0 127 0"/>
<feOffset/>
<feGaussianBlur stdDeviation="12.5"/>
<feColorMatrix type="matrix" values="0 0 0 0 0 0 0 0 0 0 0 0 0 0 0 0 0 0 0.25 0"/>
<feBlend mode="normal" in2="BackgroundImageFix" result="effect1_dropShadow"/>
<feBlend mode="normal" in="SourceGraphic" in2="effect1_dropShadow" result="shape"/>
</filter>
</defs>
</svg>
